<svg id="icon" xmlns="http://www.w3.org/2000/svg" viewBox="0 0 500 500"><defs/><path fill="none" stroke="#000" d="M209 .14C125.63 13.01 51.52 69.31 18.15 147 9.9 166.22.03 195.09 0 216v68c.03 20.67 12.44 56.38 21.75 75C51.19 417.88 98.05 461.96 160 485.05c13.8 5.14 39.56 12.78 54 12.95h68c10.62-.02 25.64-3.66 36-6.58 31.06-8.76 57.16-21.81 83-41.16 38.2-28.62 66.64-67.76 83.42-112.26 6.41-16.98 13.55-41.9 13.58-60v-58c-.02-14.4-4.69-33.21-8.98-47-11.37-36.59-33.06-73.7-60.19-100.83C399.87 43.21 364.07 21.24 325 8.98 312.04 4.91 294.53.02 281 .14h-36-36zm40 34.76h8c36.94.26 79.47 14.2 110 34.84 23.02 15.57 43.28 35.29 58.97 58.26 44.1 64.56 48.87 147.05 14.77 217-11.41 23.42-28 44.04-46.74 61.96-17.21 16.46-42.86 32.36-65 41.24-21.35 8.57-43.11 13.32-66 14.89l-10 .91c-24.22.28-56.47-4.51-79-13.45-32.37-12.84-59.03-29.91-82.91-55.55-52.77-56.66-70.31-138.56-46.75-212 8.9-27.74 23.47-52.92 42.39-75C104.7 87.04 127.32 69.6 152 57.25c26.83-13.43 57.89-22.12 88-22.35h9zM118 285c-12.02 19.03-28.27 38.2-28 62 .3 26.02 23.82 37.73 47 38 16.9.19 37-4.66 53-10 34.39-11.47 71.75-31.93 98-57.04L305.83 300l12.75-15c16.88-21.66 39.59-63.17 14.41-86.91-3.32-3.13-6.8-5.41-10.99-7.21-8.03-3.45-13.75-3.3-22-4.05-9.06-.82-21.03.35-30 2.17-22.96 4.66-52.05 15.29-72 27.46l-13 9.2c-13.95 9.47-8.73 3.65-23 17.3l-5.68 5.32c-3.33 3.98-1.22 6.99-1.38 11.72-.14 4.44-1.73 7.69-5.04 10.66-8.31 7.45-14.3 2.13-18.9 3.23-4.02.95-9.37 8.12-13 11.11 2.3-3.48 7.92-11.07 8.4-15 .66-5.3-5.93-12.16 2.71-20.9 3.03-3.06 6.49-5.07 10.89-4.97 6.96.16 9.43 4.39 16.28-.81L182 223.16l10-6.59c38-26.37 67.48-43.56 112-57.29 22.19-6.84 43.65-11.55 67-11.28 7.79.09 22.5 3.2 30 5.67 6.4 2.11 12.27 6.07 19 4.33-2.1-7.35-9.95-18.71-14.63-25-13.36-17.96-25.12-29.71-43.37-42.71-21.05-15-41.01-23.92-66-30.16-8.74-2.19-16.93-4.12-26-4.13h-42c-14.74.02-37.23 6.51-51 12-43.7 17.43-81.19 50.45-101.89 93-9.01 18.52-19.08 46.31-19.11 67v22c0 25.91-1.16 25.21 5.37 51 2.97 11.71 7.08 22.13 12.27 33 1.22 2.57 4.01 9.37 7.33 9.37 3.69 0 6.96-12.11 8.51-15.37l13.1-22c4.89-7.89 8.25-14.73 15.42-21zm56 139c1.07 6.22 4.59 6.19 10 8l23 6.35c15.52 3.56 23.49 2.65 39 2.65h23c13.97-.02 37.98-6.49 51-11.86 52.45-21.63 93.89-62.84 112-117.14 4.13-12.39 8.98-30.03 9-43l-1-54c-1.76.31-2.79.22-4.19 1.6L425.14 239c-12.33 22.28-27.86 45.36-45.23 64-40.09 43.03-90.87 77.37-144.91 100.42-14.2 6.06-46.54 18.54-61 20.58z"/></svg>